<?xml version="1.0" encoding="utf-8"?>
<!-- Generator: Adobe Illustrator 27.4.0, SVG Export Plug-In . SVG Version: 6.00 Build 0)  -->
<svg version="1.1" id="Lag_1" xmlns="http://www.w3.org/2000/svg" xmlns:xlink="http://www.w3.org/1999/xlink" x="0px" y="0px"
	 viewBox="0 0 141.73 141.73" style="enable-background:new 0 0 141.73 141.73;" xml:space="preserve">
<style type="text/css">
	.st0{fill:url(#SVGID_1_);}
	.st1{fill:#0F2233;}
	.st2{fill:#FFFFFF;}
	.st3{fill:url(#SVGID_00000103247569717739422830000017175013406651823246_);}
	.st4{fill:url(#SVGID_00000000191627642994767500000005236120254845648047_);}
	.st5{fill:url(#SVGID_00000013906544409863972620000002434741036392229522_);}
	.st6{opacity:0.71;fill:#790000;}
	.st7{fill:#0B0D19;}
	.st8{fill:url(#SVGID_00000125602758185071866840000004176250396642571163_);}
	.st9{fill:url(#SVGID_00000114065367758092872970000017137132353211191980_);}
	.st10{fill:#F2F3F0;}
</style>
<g>
	<path class="st10" d="M24.2,117.66c0-0.71,0.14-2.09,0.43-4.17l9.49-67.88c-3.25-5.97-6.5-11.93-9.75-17.9
		c-0.06-0.02-0.12-0.03-0.18-0.05c0.01,0.23,0.02,0.46,0.02,0.7c0,1.19-0.14,2.82-0.43,4.91l-11.01,79.3
		c-0.66,3.95-1.41,6.48-2.24,7.58c-0.83,1.11-2.55,1.78-5.16,2.01v1.07h23.53v-1.07C25.77,122.28,24.2,120.77,24.2,117.66z"/>
	<path class="st10" d="M131.2,120.17c-0.83-1.1-1.57-3.63-2.24-7.58l-11.01-79.3c-0.28-2.09-0.43-3.72-0.43-4.91
		c0-0.25,0.01-0.48,0.02-0.72c-0.08,0.02-0.15,0.04-0.23,0.06c-3.24,5.95-6.47,11.89-9.71,17.84l9.49,67.94
		c0.29,2.07,0.43,3.46,0.43,4.17c0,3.11-1.57,4.61-4.7,4.52v1.07h23.52v-1.07C133.74,121.95,132.03,121.28,131.2,120.17z"/>
	<path class="st10" d="M118.16,24.04c0.06-0.13,0.43-0.9,1.23-1.77c0.03-0.04,0.07-0.07,0.1-0.11c0.58-0.64,1.28-1.16,2.11-1.56
		c0.02-0.01,0.04-0.02,0.06-0.03c0.48-0.26,1.87-0.94,3.86-1.12c0.14-0.01,0.26-0.01,0.38-0.02v-0.01c0.75-0.05,1.6-0.07,2.53-0.04
		v-0.91H100.2v0.91c2.5-0.12,3.74,0.59,3.74,2.14c0,0.61-0.17,1.27-0.5,1.96c-10.86,22-21.72,43.99-32.57,65.99
		c-0.04-0.09-0.09-0.18-0.13-0.27c-0.04,0.09-0.09,0.18-0.13,0.27c-10.86-22-21.71-43.99-32.57-65.99c-0.33-0.69-0.5-1.34-0.5-1.96
		c0-1.54,1.25-2.26,3.74-2.14v-0.92H13.12c-0.03,0.03-0.05,0.05-0.08,0.08v0.84c0.82-0.02,1.57-0.01,2.25,0.02
		c0.27,0,0.56,0.01,0.87,0.04c1.74,0.16,3.03,0.7,3.64,1.01c1.25,0.54,2.23,1.33,2.95,2.37c0.29,0.38,0.49,0.72,0.62,0.95
		c0.08,0.14,0.13,0.25,0.14,0.26c0.2,0.4,13.95,25.3,46.99,85.1h0.45C98.2,60.08,117.76,24.85,118.16,24.04z"/>
</g>
</svg>
